<svg id="visual" viewBox="0 0 900 900" width="900" height="900" xmlns="http://www.w3.org/2000/svg" xmlns:xlink="http://www.w3.org/1999/xlink" version="1.1"><rect x="0" y="0" width="900" height="900" fill="#2438f0"></rect><g transform="translate(452.6386942282778 468.6272495518422)"><path d="M77.7 -133.2C126.4 -106.5 209.4 -137.6 209.1 -125.1C208.9 -112.5 125.6 -56.3 109.6 -9.2C93.7 37.8 145.1 75.7 148.2 93.1C151.2 110.6 105.9 107.7 73.1 106.4C40.3 105.2 20.2 105.6 -17.4 135.8C-55 165.9 -110 225.9 -119.1 213.4C-128.2 201 -91.4 116.3 -109.7 68.6C-128 21 -201.5 10.5 -212.8 -6.5C-224 -23.5 -173.1 -47 -138.7 -66.9C-104.4 -86.8 -86.7 -103.2 -66.4 -146.3C-46 -189.3 -23 -259.2 -4.3 -251.8C14.5 -244.4 29 -159.9 77.7 -133.2" fill="#030139"></path></g></svg>